<svg id="Capa_1" enable-background="new 0 0 512 512" height="512" viewBox="0 0 512 512" width="512" xmlns="http://www.w3.org/2000/svg"><g><path d="m256 0c-141.385 0-256 114.615-256 256s114.615 256 256 256 256-114.615 256-256-114.615-256-256-256z" fill="#dd636e"/><path d="m256 484.129c-136.709 0-248.381-107.161-255.619-242.065-.247 4.615-.381 9.26-.381 13.936 0 141.385 114.615 256 256 256s256-114.615 256-256c0-4.676-.134-9.321-.381-13.936-7.238 134.904-118.91 242.065-255.619 242.065z" fill="#da4a54"/><path d="m160.16 102.395c-36.605 0-66.28 58.576-66.28 113.978 0 27.183 14.466 50.764 35.654 62.525 10.818 6.005 17.483 17.434 16.909 29.794l-8.119 174.705c14.118 7.321 29.006 13.358 44.508 17.974l-8.955-192.679c-.574-12.359 6.091-23.788 16.909-29.793 21.188-11.761 35.654-35.342 35.654-62.525 0-55.403-29.675-113.979-66.28-113.979z" fill="#eaeaea"/><path d="m139.588 456.189-1.265 27.208c14.118 7.321 29.006 13.358 44.508 17.974l-1.314-28.262c-14.566-4.423-28.589-10.097-41.929-16.92z" fill="#cbcbcb"/><path d="m393.887 114.259c-.348-6.651-5.842-11.865-12.501-11.865-7.024 0-12.674 5.779-12.515 12.801l2.085 92.113c.147 6.513-5.092 11.873-11.607 11.873-6.367 0-11.546-5.127-11.61-11.493l-.954-94.742c-.059-5.845-4.814-10.552-10.659-10.552s-10.6 4.707-10.659 10.552l-.954 94.742c-.064 6.366-5.243 11.493-11.61 11.493-6.515 0-11.755-5.36-11.608-11.873l2.097-92.638c.152-6.734-5.265-12.276-12.001-12.276-6.386 0-11.655 5-11.988 11.378l-5.59 106.913c-1.31 25.058 12.198 47.309 32.688 58.553 10.717 5.881 16.968 17.533 16.401 29.744l-9.131 196.472c15.606-3.6 30.658-8.642 45.028-14.951l-8.44-181.613c-.567-12.199 5.688-23.836 16.403-29.693 20.492-11.202 34-33.453 32.689-58.511z" fill="#eaeaea"/><path d="m315.081 477.265-1.31 28.19c15.606-3.6 30.658-8.642 45.028-14.951l-1.269-27.316c-13.582 5.874-27.769 10.608-42.449 14.077z" fill="#cbcbcb"/></g></svg>