<svg id="Capa_1" enable-background="new 0 0 512 512" height="512" viewBox="0 0 512 512" width="512" xmlns="http://www.w3.org/2000/svg"><g><path d="m512 256c0 81.24-37.84 153.64-96.86 200.53-24.211 1.249-111.768 11.471-171.908 11.471s-118.592-7.559-146.372-11.471c-59.02-46.89-96.86-119.29-96.86-200.53 0-141.38 114.62-256 256-256s256 114.62 256 256z" fill="#dd636e"/><path d="m415.14 404.98v51.55c-43.69 34.72-99 55.47-159.14 55.47s-115.45-20.75-159.14-55.47v-51.55z" fill="#dfeaef"/><path d="m503.388 239.514c0 40.73-8.987 79.263-24.995 113.496-27.704 59.353-76.469 105.921-136.063 129.001-26.585 10.295-55.335 15.924-85.331 15.924-97.248 0-181.323-59.091-221.394-144.924-16.007-34.233-24.995-72.766-24.995-113.496h492.778z" fill="#f1f4f6"/><path d="m342.331 482.01c-26.585 10.295-55.335 15.924-85.331 15.924-97.248 0-181.323-59.091-221.394-144.924-16.007-34.233-24.995-72.766-24.995-113.496h45.909l110.503 51.266s17.859 191.231 175.276 191.231h.032z" fill="#dfeaef"/><path d="m503.388 239.514c0 12.534-8.987 24.388-24.995 34.923-21.259 14.009-54.896 25.706-96.316 33.605-36.671 6.978-79.42 10.985-125.077 10.985-97.248 0-181.323-18.183-221.394-44.591-16.007-10.535-24.995-22.389-24.995-34.923.001-43.91 110.305-79.513 246.389-79.513 32.276 0 63.098 2.009 91.347 5.65 90.855 11.707 155.041 40.374 155.041 73.864z" fill="#f1f4f6"/><path d="m503.388 239.514c0 12.534-8.987 24.388-24.995 34.923-21.259 14.009-54.896 25.706-96.316 33.605-52.939-11.686-87.214-27.547-66.488-48.65 40.102-40.824 38.052-75.758 32.758-93.743 90.855 11.708 155.041 40.375 155.041 73.865z" fill="#dfeaef"/><ellipse cx="257" cy="274.437" fill="#ffd064" rx="221.394" ry="44.591"/><g fill="#f9f48e"><ellipse cx="138.014" cy="272.521" rx="30.624" ry="10.391"/><ellipse cx="253.687" cy="294.614" rx="30.624" ry="10.391"/><ellipse cx="368.426" cy="272.521" rx="15.312" ry="5.195"/><ellipse cx="129.218" cy="291.577" rx="15.312" ry="5.195"/><ellipse cx="409.833" cy="277.716" rx="15.312" ry="5.195"/><ellipse cx="323.498" cy="257.259" rx="30.624" ry="10.391"/><ellipse cx="186.35" cy="294.614" rx="21.674" ry="7.354"/><ellipse cx="247.598" cy="246.868" rx="21.674" ry="7.354"/></g><g><path d="m401.33 183.75-43.95 76.6-19.66 34.26h-37.76l31.5-54.9 41.46-72.26z" fill="#f1f4f6"/><path d="m385.41 174.62-37.34 65.09-31.5 54.9h-16.61l31.5-54.9 41.46-72.26z" fill="#dfeaef"/><ellipse cx="421.283" cy="116.066" fill="#80b4fb" rx="123.569" ry="41.952" transform="matrix(.516 -.856 .856 .516 104.363 416.919)"/><path d="m485.09 10.241c-5.884-3.535-39.197 40.976-74.443 99.426-35.233 58.432-59.046 108.692-53.162 112.228-19.848-11.968-7.376-69.041 27.871-127.491 35.233-58.431 79.887-96.115 99.734-84.163z" fill="#61a2f9"/></g></g></svg>